<svg width="191" height="71" viewBox="0 0 191 71" fill="none" xmlns="http://www.w3.org/2000/svg">
<g filter="url(#filter0_d_287_56)">
<circle cx="35.5" cy="31.5" r="20.5" fill="#FAF8FC"/>
<circle cx="35.5" cy="31.5" r="20" stroke="#F5F5F5"/>
</g>
<path d="M35.975 36.1135C36.2383 35.9943 36.5381 35.968 36.8203 36.0392C37.1024 36.1105 37.3481 36.2746 37.5129 36.5018L41.8204 42.4323C41.984 42.6844 42.0385 42.986 41.9728 43.2749C41.9071 43.5638 41.7262 43.8179 41.4674 43.9847C41.2085 44.1515 40.8916 44.2184 40.5819 44.1714C40.2723 44.1244 39.9937 43.9672 39.8035 43.7323L36.739 39.5115V43.8489C36.739 44.1542 36.6103 44.447 36.3812 44.6628C36.152 44.8787 35.8412 45 35.5172 45C35.1931 45 34.8823 44.8787 34.6532 44.6628C34.424 44.447 34.2953 44.1542 34.2953 43.8489V39.5115L31.2308 43.7323C31.1401 43.857 31.0242 43.9637 30.8897 44.0463C30.7552 44.1288 30.6048 44.1856 30.447 44.2134C30.2892 44.2412 30.1272 44.2395 29.9701 44.2083C29.813 44.177 29.664 44.117 29.5316 44.0315C29.3992 43.9461 29.2859 43.8369 29.1982 43.7102C29.1106 43.5835 29.0503 43.4418 29.0208 43.2931C28.9913 43.1445 28.9932 42.9918 29.0263 42.8438C29.0594 42.6959 29.1232 42.5555 29.2139 42.4307L32.5504 37.8386C32.6711 37.6727 32.8356 37.5394 33.0278 37.4518L35.975 36.1135Z" fill="#36204D"/>
<g filter="url(#filter1_d_287_56)">
<path d="M74.227 33.44C75.081 33.622 75.767 34.049 76.285 34.721C76.803 35.379 77.062 36.135 77.062 36.989C77.062 38.221 76.628 39.201 75.76 39.929C74.906 40.643 73.709 41 72.169 41H65.302V26.258H71.938C73.436 26.258 74.605 26.601 75.445 27.287C76.299 27.973 76.726 28.904 76.726 30.08C76.726 30.948 76.495 31.669 76.033 32.243C75.585 32.817 74.983 33.216 74.227 33.44ZM68.893 32.222H71.245C71.833 32.222 72.281 32.096 72.589 31.844C72.911 31.578 73.072 31.193 73.072 30.689C73.072 30.185 72.911 29.8 72.589 29.534C72.281 29.268 71.833 29.135 71.245 29.135H68.893V32.222ZM71.539 38.102C72.141 38.102 72.603 37.969 72.925 37.703C73.261 37.423 73.429 37.024 73.429 36.506C73.429 35.988 73.254 35.582 72.904 35.288C72.568 34.994 72.099 34.847 71.497 34.847H68.893V38.102H71.539ZM82.7358 26.258V41H79.1448V26.258H82.7358ZM98.5261 41H94.9351L88.9291 31.907V41H85.3381V26.258H88.9291L94.9351 35.393V26.258H98.5261V41ZM111.734 26.258V29.135H107.828V41H104.237V29.135H100.331V26.258H111.734ZM121.054 41L117.988 35.435H117.127V41H113.536V26.258H119.563C120.725 26.258 121.712 26.461 122.524 26.867C123.35 27.273 123.966 27.833 124.372 28.547C124.778 29.247 124.981 30.031 124.981 30.899C124.981 31.879 124.701 32.754 124.141 33.524C123.595 34.294 122.783 34.84 121.705 35.162L125.107 41H121.054ZM117.127 32.894H119.353C120.011 32.894 120.501 32.733 120.823 32.411C121.159 32.089 121.327 31.634 121.327 31.046C121.327 30.486 121.159 30.045 120.823 29.723C120.501 29.401 120.011 29.24 119.353 29.24H117.127V32.894ZM130.827 29.135V32.117H135.636V34.889H130.827V38.123H136.266V41H127.236V26.258H136.266V29.135H130.827ZM151.785 41H148.194L142.188 31.907V41H138.597V26.258H142.188L148.194 35.393V26.258H151.785V41ZM159.911 26.258C161.465 26.258 162.823 26.566 163.985 27.182C165.147 27.798 166.043 28.666 166.673 29.786C167.317 30.892 167.639 32.173 167.639 33.629C167.639 35.071 167.317 36.352 166.673 37.472C166.043 38.592 165.14 39.46 163.964 40.076C162.802 40.692 161.451 41 159.911 41H154.388V26.258H159.911ZM159.68 37.892C161.038 37.892 162.095 37.521 162.851 36.779C163.607 36.037 163.985 34.987 163.985 33.629C163.985 32.271 163.607 31.214 162.851 30.458C162.095 29.702 161.038 29.324 159.68 29.324H157.979V37.892H159.68ZM174.98 41.147C173.902 41.147 172.936 40.972 172.082 40.622C171.228 40.272 170.542 39.754 170.024 39.068C169.52 38.382 169.254 37.556 169.226 36.59H173.048C173.104 37.136 173.293 37.556 173.615 37.85C173.937 38.13 174.357 38.27 174.875 38.27C175.407 38.27 175.827 38.151 176.135 37.913C176.443 37.661 176.597 37.318 176.597 36.884C176.597 36.52 176.471 36.219 176.219 35.981C175.981 35.743 175.68 35.547 175.316 35.393C174.966 35.239 174.462 35.064 173.804 34.868C172.852 34.574 172.075 34.28 171.473 33.986C170.871 33.692 170.353 33.258 169.919 32.684C169.485 32.11 169.268 31.361 169.268 30.437C169.268 29.065 169.765 27.994 170.759 27.224C171.753 26.44 173.048 26.048 174.644 26.048C176.268 26.048 177.577 26.44 178.571 27.224C179.565 27.994 180.097 29.072 180.167 30.458H176.282C176.254 29.982 176.079 29.611 175.757 29.345C175.435 29.065 175.022 28.925 174.518 28.925C174.084 28.925 173.734 29.044 173.468 29.282C173.202 29.506 173.069 29.835 173.069 30.269C173.069 30.745 173.293 31.116 173.741 31.382C174.189 31.648 174.889 31.935 175.841 32.243C176.793 32.565 177.563 32.873 178.151 33.167C178.753 33.461 179.271 33.888 179.705 34.448C180.139 35.008 180.356 35.729 180.356 36.611C180.356 37.451 180.139 38.214 179.705 38.9C179.285 39.586 178.669 40.132 177.857 40.538C177.045 40.944 176.086 41.147 174.98 41.147Z" fill="url(#paint0_linear_287_56)"/>
</g>
<defs>
<filter id="filter0_d_287_56" x="0" y="0" width="71" height="71" filterUnits="userSpaceOnUse" color-interpolation-filters="sRGB">
<feFlood flood-opacity="0" result="BackgroundImageFix"/>
<feColorMatrix in="SourceAlpha" type="matrix" values="0 0 0 0 0 0 0 0 0 0 0 0 0 0 0 0 0 0 127 0" result="hardAlpha"/>
<feOffset dy="4"/>
<feGaussianBlur stdDeviation="7.5"/>
<feComposite in2="hardAlpha" operator="out"/>
<feColorMatrix type="matrix" values="0 0 0 0 0 0 0 0 0 0 0 0 0 0 0 0 0 0 0.14 0"/>
<feBlend mode="normal" in2="BackgroundImageFix" result="effect1_dropShadow_287_56"/>
<feBlend mode="normal" in="SourceGraphic" in2="effect1_dropShadow_287_56" result="shape"/>
</filter>
<filter id="filter1_d_287_56" x="55.3018" y="20.0481" width="135.054" height="35.0989" filterUnits="userSpaceOnUse" color-interpolation-filters="sRGB">
<feFlood flood-opacity="0" result="BackgroundImageFix"/>
<feColorMatrix in="SourceAlpha" type="matrix" values="0 0 0 0 0 0 0 0 0 0 0 0 0 0 0 0 0 0 127 0" result="hardAlpha"/>
<feOffset dy="4"/>
<feGaussianBlur stdDeviation="5"/>
<feComposite in2="hardAlpha" operator="out"/>
<feColorMatrix type="matrix" values="0 0 0 0 0.231373 0 0 0 0 0.243137 0 0 0 0 0.67451 0 0 0 0.35 0"/>
<feBlend mode="normal" in2="BackgroundImageFix" result="effect1_dropShadow_287_56"/>
<feBlend mode="normal" in="SourceGraphic" in2="effect1_dropShadow_287_56" result="shape"/>
</filter>
<linearGradient id="paint0_linear_287_56" x1="137.542" y1="37" x2="49.0574" y2="64.2598" gradientUnits="userSpaceOnUse">
<stop stop-color="#36204D"/>
<stop offset="1" stop-color="#76008F"/>
</linearGradient>
</defs>
</svg>
