<svg width="22" height="22" viewBox="0 0 22 22" fill="none" xmlns="http://www.w3.org/2000/svg">
<path d="M20.0002 20L15.6572 15.657M15.6572 15.657C16.4001 14.9141 16.9894 14.0321 17.3914 13.0615C17.7935 12.0909 18.0004 11.0506 18.0004 9.99996C18.0004 8.94936 17.7935 7.90905 17.3914 6.93842C16.9894 5.96779 16.4001 5.08585 15.6572 4.34296C14.9143 3.60007 14.0324 3.01078 13.0618 2.60874C12.0911 2.20669 11.0508 1.99976 10.0002 1.99976C8.9496 1.99976 7.90929 2.20669 6.93866 2.60874C5.96803 3.01078 5.08609 3.60007 4.34321 4.34296C2.84288 5.84329 2 7.87818 2 9.99996C2 12.1217 2.84288 14.1566 4.34321 15.657C5.84354 17.1573 7.87842 18.0002 10.0002 18.0002C12.122 18.0002 14.1569 17.1573 15.6572 15.657Z" stroke="#D2D2D2" stroke-width="2.5" stroke-linecap="round" stroke-linejoin="round"/>
</svg>
